<svg width="577" height="189" viewBox="0 0 577 189" fill="none" xmlns="http://www.w3.org/2000/svg">
<path d="M550.8 87.6L527.701 123.5L525.401 87.6H492.2C495.3 77.1 497.7 68.6 497.7 68.6L499 64.4H473.5L472.3 68.6L466.8 87.6H445.1C441.5 87.6 439.7 87.6 439.7 87.6C417.4 87.6 404.9 94 399.7 106C396.7 95 386.8 87.6 371.5 87.6C358.3 87.6 346.6 92.5 337.9 100.3C333.4 92.5 324.5 87.6 312.1 87.6C297.9 87.6 285.6 93.3 276.6 102C272.5 93.3 263.2 87.6 249.9 87.6C245.3 87.6 241 88.2 236.9 89.3L238.9 82.4C238.9 82.3 239 82.2 239 82.1L244.1 64.4H218.7L202.5 120.2C202.1 121.3 201.7 122.4 201.4 123.6C200.7 126.2 200.2 128.7 200 131.1C197.9 146.7 204.7 158.4 223.6 159.2C225.3 159.4 227.1 159.5 229.1 159.5C242.5 159.5 255 153.8 264.2 145.1C268.1 153.8 277.2 159.5 291.3 159.5C303.8 159.5 315.6 154.6 324.5 146.8C328.8 154.6 337.6 159.5 350.7 159.5C379.1 159.5 400.3 159.5 414.3 159.5C434 159.5 445.1 155.6 450.9 147.2C450.9 155.3 455.5 159.5 467.1 159.5C476.5 159.5 489.1 157.4 506.4 153.2L481.3 189H506.7L576.201 87.6H550.8ZM252.3 123.5C249.9 131.7 242.3 138.3 235.3 138.3C228.3 138.3 224.5 131.7 226.9 123.5C229.3 115.3 236.9 108.7 243.9 108.7C250.9 108.7 254.7 115.3 252.3 123.5ZM314.4 123.5C312 131.7 304.4 138.3 297.4 138.3C290.4 138.3 286.6 131.7 289 123.5C291.4 115.3 299 108.7 306 108.7C313 108.7 316.8 115.3 314.4 123.5ZM348.5 123.5C350.9 115.3 358.5 108.7 365.5 108.7C372.5 108.7 376.3 115.3 373.9 123.5C371.6 131.6 364.1 138.1 357.2 138.3C357 138.3 356.8 138.3 356.6 138.3C349.8 138.1 346.2 131.6 348.5 123.5ZM430.2 135.7C428.9 138.7 418.9 138.2 416.4 138.3C416.4 138.3 409.8 138.3 391.8 138.3C395.1 133.8 397.7 128.8 399.2 123.5C399.4 123 399.5 122.4 399.6 121.9C402.3 125.7 407.9 129.1 418.8 131.3C429.2 133.3 431.1 132.7 430.2 135.7ZM455.3 127.6C453.1 119.2 443.8 115.8 430.7 114.2C425.2 113.5 422.1 113.3 422.8 110.9C423.3 109.1 426.1 108.7 432 108.7C435.7 108.7 440.1 108.7 445.2 108.7H460.8L455.3 127.6ZM480.6 127.7C480.6 127.5 483.1 119.1 486.1 108.7H502.2L504.8 135.6C478.3 141.3 477.7 139.8 480.6 127.7Z" fill="#242B2C"/>
<path d="M5.50046 112.9L38.2005 0H88.3005L78.2005 35C78.1005 35.2 78.0005 35.4 77.9005 35.6L51.3005 128H76.1005C65.7005 153.9 57.6005 174.2 51.8005 188.9C6.00047 188.4 -6.79954 155.6 4.40046 116.8M51.9005 189L112.3 102.1H86.7005L109 46.4C147.2 50.4 165.2 80.5 154.6 116.9C143.3 156 97.4005 189 52.8005 189C52.5005 189 52.2005 189 51.9005 189Z" fill="url(#paint0_linear_712_15)"/>
<defs>
<linearGradient id="paint0_linear_712_15" x1="106.302" y1="24.5591" x2="41.8111" y2="244.49" gradientUnits="userSpaceOnUse">
<stop stop-color="#EF7829"/>
<stop offset="0.0518954" stop-color="#F07529"/>
<stop offset="0.3551" stop-color="#F0672B"/>
<stop offset="0.6673" stop-color="#F15E2C"/>
<stop offset="1" stop-color="#F15A2C"/>
</linearGradient>
</defs>
</svg>
