<svg width="20" height="20" viewBox="0 0 20 20" fill="none" xmlns="http://www.w3.org/2000/svg">
	<path d="M13.5 11.15H11.33C9.55 11.15 8.1 9.71 8.1 7.92V5.75C8.1 5.34 7.77 5 7.35 5H4.18C1.87 5 0 6.5 0 9.18V15.82C0 18.5 1.87 20 4.18 20H10.07C12.38 20 14.25 18.5 14.25 15.82V11.9C14.25 11.48 13.91 11.15 13.5 11.15Z" fill="currentColor" />
	<path d="M15.82 0H9.93001C7.67001 0 5.84001 1.44 5.76001 4.01C5.82001 4.01 5.87001 4 5.93001 4H11.82C14.13 4 16 5.5 16 8.18V14.83C16 14.89 15.99 14.94 15.99 14.99C18.22 14.92 20 13.44 20 10.83V4.18C20 1.5 18.13 0 15.82 0Z" fill="currentColor" />
	<path d="M9.98001 5.14999C9.67001 4.83999 9.14001 5.04999 9.14001 5.47999V8.09999C9.14001 9.19999 10.07 10.1 11.21 10.1C11.92 10.11 12.91 10.11 13.76 10.11C14.19 10.11 14.41 9.61 14.11 9.31C13.02 8.22 11.08 6.26999 9.98001 5.14999Z" fill="currentColor" />
</svg>
