<svg width="1306" height="124" viewBox="0 0 1306 124" fill="none" xmlns="http://www.w3.org/2000/svg">
	<path d="M85.0703 5.375C94.1849 5.89583 101.672 9.41146 107.531 15.9219C113.391 22.3021 117.622 29.5938 120.227 37.7969C122.831 46 124.133 54.3984 124.133 62.9922C124.133 71.5859 122.831 79.9844 120.227 88.1875C117.753 96.3906 113.521 103.747 107.531 110.258C101.672 116.638 94.1849 120.089 85.0703 120.609H13.1953C9.67969 120.479 6.6849 119.242 4.21094 116.898C1.86719 114.424 0.630208 111.43 0.5 107.914V59.4766C0.630208 55.8307 1.9974 52.8359 4.60156 50.4922C7.20573 48.0182 10.3307 46.7812 13.9766 46.7812C17.4922 46.9115 20.487 48.2135 22.9609 50.6875C25.4349 53.0312 26.737 55.9609 26.8672 59.4766V89.1641C26.8672 92.6797 28.6901 94.4375 32.3359 94.4375H78.4297C83.3776 94.1771 87.4792 92.2891 90.7344 88.7734C93.9896 85.2578 96.3333 81.2865 97.7656 76.8594C99.3281 72.3021 100.109 67.6797 100.109 62.9922C100.109 58.3047 99.3281 53.7474 97.7656 49.3203C96.3333 44.763 93.9896 40.7266 90.7344 37.2109C87.4792 33.6953 83.3776 31.8073 78.4297 31.5469H13.1953C5.38281 30.8958 1.15104 26.6641 0.5 18.8516C0.5 15.2057 1.67188 12.0807 4.01562 9.47656C6.48958 6.8724 9.54948 5.50521 13.1953 5.375H85.0703Z" fill="currentColor" />
	<path d="M171.789 110.648C171.008 118.461 166.711 122.693 158.898 123.344C155.253 123.344 152.062 122.172 149.328 119.828C146.724 117.354 145.422 114.294 145.422 110.648V18.0703C145.552 14.4245 146.919 11.4297 149.523 9.08594C152.128 6.61198 155.253 5.375 158.898 5.375H240.734C241.516 5.375 242.297 5.4401 243.078 5.57031H244.25C253.365 5.83073 260.852 7.91406 266.711 11.8203C272.57 15.7266 276.802 20.2188 279.406 25.2969C282.01 30.2448 283.312 35.2578 283.312 40.3359C283.312 45.5443 282.01 50.6875 279.406 55.7656C276.932 60.7135 272.701 65.1406 266.711 69.0469C260.852 72.9531 253.365 75.0365 244.25 75.2969H209.875C210.917 81.8073 213.065 86.625 216.32 89.75C219.445 92.875 223.417 94.4375 228.234 94.4375H270.422C274.068 94.5677 277.062 95.9349 279.406 98.5391C281.88 101.143 283.117 104.268 283.117 107.914C282.987 111.43 281.685 114.424 279.211 116.898C276.867 119.242 273.938 120.479 270.422 120.609H224.719C215.083 120.74 206.359 116.964 198.547 109.281C190.734 101.599 185.982 92.4844 184.289 81.9375C181.945 70.2188 180.773 63.6432 180.773 62.2109C180.773 58.5651 182.01 55.5052 184.484 53.0312C187.089 50.4271 190.214 49.125 193.859 49.125H245.422C247.896 48.9948 249.914 48.474 251.477 47.5625C253.169 46.5208 254.406 45.4141 255.188 44.2422C255.969 42.9401 256.359 41.638 256.359 40.3359C256.359 39.0339 255.969 37.7969 255.188 36.625C254.406 35.3229 253.169 34.2161 251.477 33.3047C249.914 32.263 247.896 31.6771 245.422 31.5469H176.867C173.482 31.6771 171.789 33.3698 171.789 36.625V110.648Z" fill="currentColor" />
	<path d="M348.352 90.3359C348.352 86.6901 349.589 83.6302 352.062 81.1562C354.667 78.5521 357.792 77.25 361.438 77.25H391.32L386.242 62.7969C384.159 57.4583 382.076 52.4453 379.992 47.7578C378.039 42.9401 375.76 38.5781 373.156 34.6719C370.812 30.7656 368.143 28.6823 365.148 28.4219C362.023 28.6823 359.224 30.7656 356.75 34.6719C354.276 38.5781 351.997 42.9401 349.914 47.7578C347.961 52.4453 345.943 57.4583 343.859 62.7969L325.305 113.578C324.003 116.312 322.31 118.591 320.227 120.414C318.273 122.107 315.279 122.953 311.242 122.953C307.466 122.953 304.341 121.651 301.867 119.047C299.523 116.443 298.482 113.318 298.742 109.672C298.872 107.979 299.263 106.417 299.914 104.984L321.398 49.5156C327.388 34.9323 333.378 23.1484 339.367 14.1641C345.227 5.3099 353.82 0.817708 365.148 0.6875C376.346 0.817708 384.875 5.3099 390.734 14.1641C396.724 22.888 402.714 34.6719 408.703 49.5156L430.188 104.984C430.839 106.417 431.229 107.979 431.359 109.672C431.62 113.318 430.513 116.443 428.039 119.047C425.695 121.651 422.635 122.953 418.859 122.953C414.562 122.953 411.372 122.107 409.289 120.414C407.336 118.591 405.708 116.312 404.406 113.578L400.695 103.422H361.438C357.792 103.422 354.732 102.12 352.258 99.5156C349.654 97.0417 348.352 93.9818 348.352 90.3359Z" fill="currentColor" />
	<path d="M488 5.375H570.422C574.068 5.50521 577.062 6.8724 579.406 9.47656C581.88 12.0807 583.117 15.2057 583.117 18.8516C582.466 26.6641 578.234 30.8958 570.422 31.5469H494.641C489.693 31.8073 485.591 33.6953 482.336 37.2109C479.081 40.7266 476.672 44.763 475.109 49.3203C473.677 53.7474 472.961 58.3047 472.961 62.9922C472.961 67.6797 473.677 72.3021 475.109 76.8594C476.672 81.2865 479.081 85.2578 482.336 88.7734C485.591 92.2891 489.693 94.1771 494.641 94.4375H554.016C556.359 94.3073 557.596 93.0052 557.727 90.5312V79.2031C557.596 76.599 556.359 75.2969 554.016 75.2969H504.016C500.37 75.2969 497.245 74.0599 494.641 71.5859C492.167 68.9818 490.93 65.8568 490.93 62.2109C490.93 58.5651 492.167 55.4401 494.641 52.8359C497.245 50.362 500.37 49.125 504.016 49.125H570.812C574.458 49.125 577.583 50.362 580.188 52.8359C582.531 55.3099 583.768 58.3047 583.898 61.8203V107.914C583.768 111.43 582.531 114.359 580.188 116.703C577.714 119.177 574.719 120.479 571.203 120.609H488C478.885 120.089 471.333 116.638 465.344 110.258C459.484 103.747 455.253 96.3906 452.648 88.1875C450.174 79.9844 448.938 71.5859 448.938 62.9922C448.938 54.3984 450.24 46 452.844 37.7969C455.448 29.5938 459.68 22.3021 465.539 15.9219C471.398 9.41146 478.885 5.89583 488 5.375Z" fill="currentColor" />
	<path d="M792.883 5.375C801.997 5.89583 809.484 9.41146 815.344 15.9219C821.203 22.3021 825.435 29.5938 828.039 37.7969C830.643 46 831.945 54.3984 831.945 62.9922C831.945 71.5859 830.643 79.9844 828.039 88.1875C825.565 96.3906 821.333 103.747 815.344 110.258C809.484 116.638 801.997 120.089 792.883 120.609H721.008C717.492 120.479 714.497 119.242 712.023 116.898C709.68 114.424 708.443 111.43 708.312 107.914V59.4766C708.443 55.8307 709.81 52.8359 712.414 50.4922C715.018 48.0182 718.143 46.7812 721.789 46.7812C725.305 46.9115 728.299 48.2135 730.773 50.6875C733.247 53.0312 734.549 55.9609 734.68 59.4766V89.1641C734.68 92.6797 736.503 94.4375 740.148 94.4375H786.242C791.19 94.1771 795.292 92.2891 798.547 88.7734C801.802 85.2578 804.146 81.2865 805.578 76.8594C807.141 72.3021 807.922 67.6797 807.922 62.9922C807.922 58.3047 807.141 53.7474 805.578 49.3203C804.146 44.763 801.802 40.7266 798.547 37.2109C795.292 33.6953 791.19 31.8073 786.242 31.5469H721.008C713.195 30.8958 708.964 26.6641 708.312 18.8516C708.312 15.2057 709.484 12.0807 711.828 9.47656C714.302 6.8724 717.362 5.50521 721.008 5.375H792.883Z" fill="currentColor" />
	<path d="M958.117 5.375C964.758 5.50521 970.682 7.58854 975.891 11.625C981.099 15.6615 985.266 20.4792 988.391 26.0781C991.646 31.6771 994.055 37.6016 995.617 43.8516C997.18 50.1016 997.961 56.4818 997.961 62.9922C997.961 71.5859 996.594 80.0495 993.859 88.3828C991.255 96.5859 986.893 103.878 980.773 110.258C974.784 116.638 967.232 120.089 958.117 120.609H889.953C880.839 120.219 873.221 116.833 867.102 110.453C860.982 104.073 856.62 96.7161 854.016 88.3828C851.542 80.0495 850.305 71.5859 850.305 62.9922C850.305 54.3984 851.607 46 854.211 37.7969C856.815 29.4635 861.112 22.1068 867.102 15.7266C873.221 9.21615 880.839 5.76562 889.953 5.375H958.117ZM951.477 94.4375C956.424 94.1771 960.526 92.3542 963.781 88.9688C967.167 85.4531 969.576 81.4167 971.008 76.8594C972.44 72.3021 973.156 67.6797 973.156 62.9922C973.156 58.3047 972.375 53.7474 970.812 49.3203C969.38 44.763 967.036 40.7266 963.781 37.2109C960.526 33.6953 956.424 31.8073 951.477 31.5469H896.008C891.06 31.8073 886.958 33.6953 883.703 37.2109C880.448 40.7266 878.039 44.763 876.477 49.3203C875.044 53.7474 874.328 58.3047 874.328 62.9922C874.328 67.6797 875.044 72.3021 876.477 76.8594C877.909 81.4167 880.253 85.4531 883.508 88.9688C886.893 92.3542 891.06 94.1771 896.008 94.4375H951.477Z" fill="currentColor" />
	<path d="M1015.54 18.4609C1015.54 14.8151 1016.78 11.7552 1019.25 9.28125C1021.85 6.67708 1024.98 5.375 1028.62 5.375H1142.3C1145.94 5.375 1149.07 6.61198 1151.67 9.08594C1154.15 11.6901 1155.38 14.8151 1155.38 18.4609C1155.38 22.1068 1154.08 25.2318 1151.48 27.8359C1149 30.3099 1145.94 31.5469 1142.3 31.5469H1098.74V110.648C1097.96 118.461 1093.66 122.693 1085.85 123.344C1082.21 123.344 1079.02 122.172 1076.28 119.828C1073.68 117.354 1072.38 114.294 1072.38 110.648V31.5469H1028.62C1024.98 31.5469 1021.92 30.2448 1019.45 27.6406C1016.84 25.1667 1015.54 22.1068 1015.54 18.4609Z" fill="currentColor" />
	<path d="M1302.26 18.4609C1302.26 22.1068 1300.96 25.1667 1298.35 27.6406C1295.88 30.2448 1292.82 31.5469 1289.17 31.5469H1211.05C1208.57 31.6771 1206.49 32.263 1204.8 33.3047C1203.23 34.2161 1202.06 35.3229 1201.28 36.625C1200.5 37.7969 1200.11 39.0339 1200.11 40.3359C1200.11 41.638 1200.5 42.9401 1201.28 44.2422C1202.06 45.4141 1203.23 46.5208 1204.8 47.5625C1206.49 48.474 1208.57 48.9948 1211.05 49.125H1266.52C1275.63 49.3854 1283.12 51.5339 1288.98 55.5703C1294.97 59.4766 1299.2 64.0339 1301.67 69.2422C1304.28 74.3203 1305.58 79.5286 1305.58 84.8672C1305.58 90.0755 1304.28 95.2839 1301.67 100.492C1299.07 105.57 1294.84 110.128 1288.98 114.164C1283.12 118.07 1275.63 120.023 1266.52 120.023H1265.34C1264.56 120.154 1263.78 120.219 1263 120.219H1189.17C1185.53 120.219 1182.4 118.982 1179.8 116.508C1177.32 113.904 1176.09 110.779 1176.09 107.133C1176.09 103.487 1177.39 100.427 1179.99 97.9531C1182.47 95.349 1185.53 94.0469 1189.17 94.0469H1267.69C1270.16 94.1771 1272.18 93.7214 1273.74 92.6797C1275.43 91.638 1276.67 90.4661 1277.45 89.1641C1278.23 87.7318 1278.62 86.2995 1278.62 84.8672C1278.62 83.9557 1278.23 82.7188 1277.45 81.1562C1276.67 79.4635 1275.43 78.0964 1273.74 77.0547C1272.18 76.013 1270.16 75.4271 1267.69 75.2969H1212.22C1203.1 75.0365 1195.55 72.9531 1189.56 69.0469C1183.7 65.1406 1179.47 60.7135 1176.87 55.7656C1174.39 50.6875 1173.16 45.5443 1173.16 40.3359C1173.16 35.2578 1174.46 30.2448 1177.06 25.2969C1179.67 20.2188 1183.9 15.7266 1189.76 11.8203C1195.62 7.91406 1203.1 5.83073 1212.22 5.57031H1213.39C1214.17 5.4401 1214.95 5.375 1215.73 5.375H1289.17C1292.82 5.375 1295.88 6.67708 1298.35 9.28125C1300.96 11.7552 1302.26 14.8151 1302.26 18.4609Z" fill="currentColor" />
</svg>
