<svg width="1280" height="124" viewBox="0 0 1280 124" fill="none" xmlns="http://www.w3.org/2000/svg">
	<path d="M85.0703 5.375C94.1849 5.89583 101.672 9.41146 107.531 15.9219C113.391 22.3021 117.622 29.5938 120.227 37.7969C122.831 46 124.133 54.3984 124.133 62.9922C124.133 71.5859 122.831 79.9844 120.227 88.1875C117.753 96.3906 113.521 103.747 107.531 110.258C101.672 116.638 94.1849 120.089 85.0703 120.609H13.1953C9.67969 120.479 6.6849 119.242 4.21094 116.898C1.86719 114.424 0.630208 111.43 0.5 107.914V59.4766C0.630208 55.8307 1.9974 52.8359 4.60156 50.4922C7.20573 48.0182 10.3307 46.7812 13.9766 46.7812C17.4922 46.9115 20.487 48.2135 22.9609 50.6875C25.4349 53.0312 26.737 55.9609 26.8672 59.4766V89.1641C26.8672 92.6797 28.6901 94.4375 32.3359 94.4375H78.4297C83.3776 94.1771 87.4792 92.2891 90.7344 88.7734C93.9896 85.2578 96.3333 81.2865 97.7656 76.8594C99.3281 72.3021 100.109 67.6797 100.109 62.9922C100.109 58.3047 99.3281 53.7474 97.7656 49.3203C96.3333 44.763 93.9896 40.7266 90.7344 37.2109C87.4792 33.6953 83.3776 31.8073 78.4297 31.5469H13.1953C5.38281 30.8958 1.15104 26.6641 0.5 18.8516C0.5 15.2057 1.67188 12.0807 4.01562 9.47656C6.48958 6.8724 9.54948 5.50521 13.1953 5.375H85.0703Z" fill="currentColor" />
	<path d="M171.789 110.648C171.008 118.461 166.711 122.693 158.898 123.344C155.253 123.344 152.062 122.172 149.328 119.828C146.724 117.354 145.422 114.294 145.422 110.648V18.0703C145.552 14.4245 146.919 11.4297 149.523 9.08594C152.128 6.61198 155.253 5.375 158.898 5.375H240.734C241.516 5.375 242.297 5.4401 243.078 5.57031H244.25C253.365 5.83073 260.852 7.91406 266.711 11.8203C272.57 15.7266 276.802 20.2188 279.406 25.2969C282.01 30.2448 283.312 35.2578 283.312 40.3359C283.312 45.5443 282.01 50.6875 279.406 55.7656C276.932 60.7135 272.701 65.1406 266.711 69.0469C260.852 72.9531 253.365 75.0365 244.25 75.2969H209.875C210.917 81.8073 213.065 86.625 216.32 89.75C219.445 92.875 223.417 94.4375 228.234 94.4375H270.422C274.068 94.5677 277.062 95.9349 279.406 98.5391C281.88 101.143 283.117 104.268 283.117 107.914C282.987 111.43 281.685 114.424 279.211 116.898C276.867 119.242 273.938 120.479 270.422 120.609H224.719C215.083 120.74 206.359 116.964 198.547 109.281C190.734 101.599 185.982 92.4844 184.289 81.9375C181.945 70.2188 180.773 63.6432 180.773 62.2109C180.773 58.5651 182.01 55.5052 184.484 53.0312C187.089 50.4271 190.214 49.125 193.859 49.125H245.422C247.896 48.9948 249.914 48.474 251.477 47.5625C253.169 46.5208 254.406 45.4141 255.188 44.2422C255.969 42.9401 256.359 41.638 256.359 40.3359C256.359 39.0339 255.969 37.7969 255.188 36.625C254.406 35.3229 253.169 34.2161 251.477 33.3047C249.914 32.263 247.896 31.6771 245.422 31.5469H176.867C173.482 31.6771 171.789 33.3698 171.789 36.625V110.648Z" fill="currentColor" />
	<path d="M348.352 90.3359C348.352 86.6901 349.589 83.6302 352.062 81.1562C354.667 78.5521 357.792 77.25 361.438 77.25H391.32L386.242 62.7969C384.159 57.4583 382.076 52.4453 379.992 47.7578C378.039 42.9401 375.76 38.5781 373.156 34.6719C370.812 30.7656 368.143 28.6823 365.148 28.4219C362.023 28.6823 359.224 30.7656 356.75 34.6719C354.276 38.5781 351.997 42.9401 349.914 47.7578C347.961 52.4453 345.943 57.4583 343.859 62.7969L325.305 113.578C324.003 116.312 322.31 118.591 320.227 120.414C318.273 122.107 315.279 122.953 311.242 122.953C307.466 122.953 304.341 121.651 301.867 119.047C299.523 116.443 298.482 113.318 298.742 109.672C298.872 107.979 299.263 106.417 299.914 104.984L321.398 49.5156C327.388 34.9323 333.378 23.1484 339.367 14.1641C345.227 5.3099 353.82 0.817708 365.148 0.6875C376.346 0.817708 384.875 5.3099 390.734 14.1641C396.724 22.888 402.714 34.6719 408.703 49.5156L430.188 104.984C430.839 106.417 431.229 107.979 431.359 109.672C431.62 113.318 430.513 116.443 428.039 119.047C425.695 121.651 422.635 122.953 418.859 122.953C414.562 122.953 411.372 122.107 409.289 120.414C407.336 118.591 405.708 116.312 404.406 113.578L400.695 103.422H361.438C357.792 103.422 354.732 102.12 352.258 99.5156C349.654 97.0417 348.352 93.9818 348.352 90.3359Z" fill="currentColor" />
	<path d="M488 5.375H570.422C574.068 5.50521 577.062 6.8724 579.406 9.47656C581.88 12.0807 583.117 15.2057 583.117 18.8516C582.466 26.6641 578.234 30.8958 570.422 31.5469H494.641C489.693 31.8073 485.591 33.6953 482.336 37.2109C479.081 40.7266 476.672 44.763 475.109 49.3203C473.677 53.7474 472.961 58.3047 472.961 62.9922C472.961 67.6797 473.677 72.3021 475.109 76.8594C476.672 81.2865 479.081 85.2578 482.336 88.7734C485.591 92.2891 489.693 94.1771 494.641 94.4375H554.016C556.359 94.3073 557.596 93.0052 557.727 90.5312V79.2031C557.596 76.599 556.359 75.2969 554.016 75.2969H504.016C500.37 75.2969 497.245 74.0599 494.641 71.5859C492.167 68.9818 490.93 65.8568 490.93 62.2109C490.93 58.5651 492.167 55.4401 494.641 52.8359C497.245 50.362 500.37 49.125 504.016 49.125H570.812C574.458 49.125 577.583 50.362 580.188 52.8359C582.531 55.3099 583.768 58.3047 583.898 61.8203V107.914C583.768 111.43 582.531 114.359 580.188 116.703C577.714 119.177 574.719 120.479 571.203 120.609H488C478.885 120.089 471.333 116.638 465.344 110.258C459.484 103.747 455.253 96.3906 452.648 88.1875C450.174 79.9844 448.938 71.5859 448.938 62.9922C448.938 54.3984 450.24 46 452.844 37.7969C455.448 29.5938 459.68 22.3021 465.539 15.9219C471.398 9.41146 478.885 5.89583 488 5.375Z" fill="currentColor" />
	<path d="M616.125 74.125C613.26 74.125 610.786 73.1484 608.703 71.1953C606.62 69.112 605.578 66.638 605.578 63.7734C605.578 60.7786 606.62 58.3047 608.703 56.3516C610.786 54.2682 613.26 53.2266 616.125 53.2266H649.719C652.583 53.2266 655.057 54.2682 657.141 56.3516C659.224 58.3047 660.266 60.7786 660.266 63.7734C660.266 66.638 659.224 69.112 657.141 71.1953C655.057 73.1484 652.583 74.125 649.719 74.125H616.125Z" fill="currentColor" />
	<path d="M766.711 5.375C775.826 5.89583 783.312 9.41146 789.172 15.9219C795.031 22.3021 799.263 29.5938 801.867 37.7969C804.471 46 805.773 54.3984 805.773 62.9922C805.773 71.5859 804.471 79.9844 801.867 88.1875C799.393 96.3906 795.161 103.747 789.172 110.258C783.312 116.638 775.826 120.089 766.711 120.609H694.836C691.32 120.479 688.326 119.242 685.852 116.898C683.508 114.424 682.271 111.43 682.141 107.914V59.4766C682.271 55.8307 683.638 52.8359 686.242 50.4922C688.846 48.0182 691.971 46.7812 695.617 46.7812C699.133 46.9115 702.128 48.2135 704.602 50.6875C707.076 53.0312 708.378 55.9609 708.508 59.4766V89.1641C708.508 92.6797 710.331 94.4375 713.977 94.4375H760.07C765.018 94.1771 769.12 92.2891 772.375 88.7734C775.63 85.2578 777.974 81.2865 779.406 76.8594C780.969 72.3021 781.75 67.6797 781.75 62.9922C781.75 58.3047 780.969 53.7474 779.406 49.3203C777.974 44.763 775.63 40.7266 772.375 37.2109C769.12 33.6953 765.018 31.8073 760.07 31.5469H694.836C687.023 30.8958 682.792 26.6641 682.141 18.8516C682.141 15.2057 683.312 12.0807 685.656 9.47656C688.13 6.8724 691.19 5.50521 694.836 5.375H766.711Z" fill="currentColor" />
	<path d="M931.945 5.375C938.586 5.50521 944.51 7.58854 949.719 11.625C954.927 15.6615 959.094 20.4792 962.219 26.0781C965.474 31.6771 967.883 37.6016 969.445 43.8516C971.008 50.1016 971.789 56.4818 971.789 62.9922C971.789 71.5859 970.422 80.0495 967.688 88.3828C965.083 96.5859 960.721 103.878 954.602 110.258C948.612 116.638 941.06 120.089 931.945 120.609H863.781C854.667 120.219 847.049 116.833 840.93 110.453C834.81 104.073 830.448 96.7161 827.844 88.3828C825.37 80.0495 824.133 71.5859 824.133 62.9922C824.133 54.3984 825.435 46 828.039 37.7969C830.643 29.4635 834.94 22.1068 840.93 15.7266C847.049 9.21615 854.667 5.76562 863.781 5.375H931.945ZM925.305 94.4375C930.253 94.1771 934.354 92.3542 937.609 88.9688C940.995 85.4531 943.404 81.4167 944.836 76.8594C946.268 72.3021 946.984 67.6797 946.984 62.9922C946.984 58.3047 946.203 53.7474 944.641 49.3203C943.208 44.763 940.865 40.7266 937.609 37.2109C934.354 33.6953 930.253 31.8073 925.305 31.5469H869.836C864.888 31.8073 860.786 33.6953 857.531 37.2109C854.276 40.7266 851.867 44.763 850.305 49.3203C848.872 53.7474 848.156 58.3047 848.156 62.9922C848.156 67.6797 848.872 72.3021 850.305 76.8594C851.737 81.4167 854.081 85.4531 857.336 88.9688C860.721 92.3542 864.888 94.1771 869.836 94.4375H925.305Z" fill="currentColor" />
	<path d="M989.367 18.4609C989.367 14.8151 990.604 11.7552 993.078 9.28125C995.682 6.67708 998.807 5.375 1002.45 5.375H1116.12C1119.77 5.375 1122.9 6.61198 1125.5 9.08594C1127.97 11.6901 1129.21 14.8151 1129.21 18.4609C1129.21 22.1068 1127.91 25.2318 1125.3 27.8359C1122.83 30.3099 1119.77 31.5469 1116.12 31.5469H1072.57V110.648C1071.79 118.461 1067.49 122.693 1059.68 123.344C1056.03 123.344 1052.84 122.172 1050.11 119.828C1047.51 117.354 1046.2 114.294 1046.2 110.648V31.5469H1002.45C998.807 31.5469 995.747 30.2448 993.273 27.6406C990.669 25.1667 989.367 22.1068 989.367 18.4609Z" fill="currentColor" />
	<path d="M1276.09 18.4609C1276.09 22.1068 1274.78 25.1667 1272.18 27.6406C1269.71 30.2448 1266.65 31.5469 1263 31.5469H1184.88C1182.4 31.6771 1180.32 32.263 1178.62 33.3047C1177.06 34.2161 1175.89 35.3229 1175.11 36.625C1174.33 37.7969 1173.94 39.0339 1173.94 40.3359C1173.94 41.638 1174.33 42.9401 1175.11 44.2422C1175.89 45.4141 1177.06 46.5208 1178.62 47.5625C1180.32 48.474 1182.4 48.9948 1184.88 49.125H1240.34C1249.46 49.3854 1256.95 51.5339 1262.8 55.5703C1268.79 59.4766 1273.03 64.0339 1275.5 69.2422C1278.1 74.3203 1279.41 79.5286 1279.41 84.8672C1279.41 90.0755 1278.1 95.2839 1275.5 100.492C1272.9 105.57 1268.66 110.128 1262.8 114.164C1256.95 118.07 1249.46 120.023 1240.34 120.023H1239.17C1238.39 120.154 1237.61 120.219 1236.83 120.219H1163C1159.35 120.219 1156.23 118.982 1153.62 116.508C1151.15 113.904 1149.91 110.779 1149.91 107.133C1149.91 103.487 1151.22 100.427 1153.82 97.9531C1156.29 95.349 1159.35 94.0469 1163 94.0469H1241.52C1243.99 94.1771 1246.01 93.7214 1247.57 92.6797C1249.26 91.638 1250.5 90.4661 1251.28 89.1641C1252.06 87.7318 1252.45 86.2995 1252.45 84.8672C1252.45 83.9557 1252.06 82.7188 1251.28 81.1562C1250.5 79.4635 1249.26 78.0964 1247.57 77.0547C1246.01 76.013 1243.99 75.4271 1241.52 75.2969H1186.05C1176.93 75.0365 1169.38 72.9531 1163.39 69.0469C1157.53 65.1406 1153.3 60.7135 1150.7 55.7656C1148.22 50.6875 1146.98 45.5443 1146.98 40.3359C1146.98 35.2578 1148.29 30.2448 1150.89 25.2969C1153.49 20.2188 1157.73 15.7266 1163.59 11.8203C1169.45 7.91406 1176.93 5.83073 1186.05 5.57031H1187.22C1188 5.4401 1188.78 5.375 1189.56 5.375H1263C1266.65 5.375 1269.71 6.67708 1272.18 9.28125C1274.78 11.7552 1276.09 14.8151 1276.09 18.4609Z" fill="currentColor" />
</svg>
