<svg width="720" height="714" viewBox="0 0 720 714" fill="none" xmlns="http://www.w3.org/2000/svg">
	<path d="M427.672 463.966V713.855C510.689 698.114 583.475 654.039 635.41 591.862L487.475 439.568C465.836 417.137 427.672 432.484 427.672 463.966Z" fill="currentColor" />
	<path d="M360 0C161.311 0 0 161.345 0 360.076C0 526.93 113.705 667.419 267.541 707.952V192.434C267.541 173.151 283.279 157.41 302.557 157.41H413.115C422.557 157.41 431.213 160.952 437.902 167.642L710.951 440.748C716.852 414.776 720 387.622 720 360.076C720 161.345 558.689 0 360 0Z" fill="currentColor" />
</svg>
