<svg width="504" height="504" fill="none" xmlns="http://www.w3.org/2000/svg"><path d="M504 252c0 139.176-112.824 252-252 252S0 391.176 0 252 112.824 0 252 0s252 112.824 252 252z" fill="#fff"/><path d="M376.91 135.085c-14.502-16.102-33.033-24.797-55.592-26.085H143.422c-9.024.322-16.597 3.703-22.721 10.144-5.801 6.441-8.701 14.17-8.701 23.187 1.611 19.322 12.085 29.788 31.422 31.398h161.46c12.246.644 22.398 5.313 30.454 14.008 8.057 8.695 13.858 18.678 17.403 29.949a100.797 100.797 0 015.801 33.814c0 11.593-1.933 23.025-5.801 34.297-3.545 10.949-9.346 20.771-17.403 29.466-8.056 8.695-18.208 13.364-30.454 14.008H190.796c-9.023 0-13.535-4.347-13.535-13.042v-73.424c-.323-8.695-3.545-15.941-9.669-21.737-6.123-6.119-13.535-9.339-22.237-9.661-9.023 0-16.758 3.059-23.203 9.178-6.446 5.796-9.83 13.203-10.152 22.22v119.797c.322 8.695 3.384 16.101 9.185 22.22 6.123 5.797 13.535 8.856 22.237 9.178h177.896c22.559-1.288 41.09-9.822 55.592-25.602 14.825-16.101 25.299-34.296 31.422-54.584 6.445-20.289 9.668-41.06 9.668-62.314 0-21.254-3.223-42.025-9.668-62.314-6.446-20.288-16.92-38.322-31.422-54.101z" fill="#28C065"/></svg>