<?xml version="1.0" encoding="utf-8"?><svg viewBox="0 0 1306 714" xmlns="http://www.w3.org/2000/svg" xmlns:xlink="http://www.w3.org/1999/xlink"><style>:root>svg{display:none}:root>svg:target{display:block}</style><svg fill="none" viewBox="0 0 577 189" id="boosty-logo" xmlns="http://www.w3.org/2000/svg"><path d="M550.8 87.6l-23.099 35.9-2.3-35.9H492.2c3.1-10.5 5.5-19 5.5-19l1.3-4.2h-25.5l-1.2 4.2-5.5 19h-27.1c-22.3 0-34.8 6.4-40 18.4-3-11-12.9-18.4-28.2-18.4-13.2 0-24.9 4.9-33.6 12.7-4.5-7.8-13.4-12.7-25.8-12.7-14.2 0-26.5 5.7-35.5 14.4-4.1-8.7-13.4-14.4-26.7-14.4-4.6 0-8.9.6-13 1.7l2-6.9c0-.1.1-.2.1-.3l5.1-17.7h-25.4l-16.2 55.8c-.4 1.1-.8 2.2-1.1 3.4-.7 2.6-1.2 5.1-1.4 7.5-2.1 15.6 4.7 27.3 23.6 28.1 1.7.2 3.5.3 5.5.3 13.4 0 25.9-5.7 35.1-14.4 3.9 8.7 13 14.4 27.1 14.4 12.5 0 24.3-4.9 33.2-12.7 4.3 7.8 13.1 12.7 26.2 12.7h63.6c19.7 0 30.8-3.9 36.6-12.3 0 8.1 4.6 12.3 16.2 12.3 9.4 0 22-2.1 39.3-6.3L481.3 189h25.4l69.501-101.4H550.8zm-298.5 35.9c-2.4 8.2-10 14.8-17 14.8s-10.8-6.6-8.4-14.8c2.4-8.2 10-14.8 17-14.8s10.8 6.6 8.4 14.8zm62.1 0c-2.4 8.2-10 14.8-17 14.8s-10.8-6.6-8.4-14.8c2.4-8.2 10-14.8 17-14.8s10.8 6.6 8.4 14.8zm34.1 0c2.4-8.2 10-14.8 17-14.8s10.8 6.6 8.4 14.8c-2.3 8.1-9.8 14.6-16.7 14.8h-.6c-6.8-.2-10.4-6.7-8.1-14.8zm81.7 12.2c-1.3 3-11.3 2.5-13.8 2.6h-24.6c3.3-4.5 5.9-9.5 7.4-14.8.2-.5.3-1.1.4-1.6 2.7 3.8 8.3 7.2 19.2 9.4 10.4 2 12.3 1.4 11.4 4.4zm25.1-8.1c-2.2-8.4-11.5-11.8-24.6-13.4-5.5-.7-8.6-.9-7.9-3.3.5-1.8 3.3-2.2 9.2-2.2h28.8l-5.5 18.9zm25.3.1c0-.2 2.5-8.6 5.5-19h16.1l2.6 26.9c-26.5 5.7-27.1 4.2-24.2-7.9z" fill="#242B2C"/><path d="M5.5 112.9L38.2 0h50.1L78.2 35l-.3.6L51.3 128h24.8c-10.4 25.9-18.5 46.2-24.3 60.9-45.8-.5-58.6-33.3-47.4-72.1M51.9 189l60.4-86.9H86.7L109 46.4c38.2 4 56.2 34.1 45.6 70.5C143.3 156 97.4 189 52.8 189h-.9z" fill="url(#apaint0_linear_712_15)"/><defs><linearGradient id="apaint0_linear_712_15" x1="106.302" y1="24.559" x2="41.811" y2="244.49" gradientUnits="userSpaceOnUse"><stop stop-color="#EF7829"/><stop offset=".052" stop-color="#F07529"/><stop offset=".355" stop-color="#F0672B"/><stop offset=".667" stop-color="#F15E2C"/><stop offset="1" stop-color="#F15A2C"/></linearGradient></defs></svg><svg fill="none" viewBox="0 0 20 20" id="icon-copy" xmlns="http://www.w3.org/2000/svg"><path d="M13.5 11.15h-2.17c-1.78 0-3.23-1.44-3.23-3.23V5.75c0-.41-.33-.75-.75-.75H4.18C1.87 5 0 6.5 0 9.18v6.64C0 18.5 1.87 20 4.18 20h5.89c2.31 0 4.18-1.5 4.18-4.18V11.9c0-.42-.34-.75-.75-.75z" fill="currentColor"/><path d="M15.82 0H9.93C7.67 0 5.84 1.44 5.76 4.01c.06 0 .11-.01.17-.01h5.89C14.13 4 16 5.5 16 8.18v6.65c0 .06-.01.11-.01.16 2.23-.07 4.01-1.55 4.01-4.16V4.18C20 1.5 18.13 0 15.82 0z" fill="currentColor"/><path d="M9.98 5.15c-.31-.31-.84-.1-.84.33V8.1c0 1.1.93 2 2.07 2 .71.01 1.7.01 2.55.01.43 0 .65-.5.35-.8-1.09-1.09-3.03-3.04-4.13-4.16z" fill="currentColor"/></svg><svg fill="none" viewBox="0 0 720 714" id="logo" xmlns="http://www.w3.org/2000/svg"><path d="M427.672 463.966v249.889c83.017-15.741 155.803-59.816 207.738-121.993L487.475 439.568c-21.639-22.431-59.803-7.084-59.803 24.398z" fill="currentColor"/><path d="M360 0C161.311 0 0 161.345 0 360.076 0 526.93 113.705 667.419 267.541 707.952V192.434c0-19.283 15.738-35.024 35.016-35.024h110.558c9.442 0 18.098 3.542 24.787 10.232l273.049 273.106A364.805 364.805 0 00720 360.076C720 161.345 558.689 0 360 0z" fill="currentColor"/></svg><svg fill="none" viewBox="0 0 1306 124" id="logo-drag-dots" xmlns="http://www.w3.org/2000/svg"><path d="M85.07 5.375c9.115.52 16.602 4.036 22.461 10.547 5.86 6.38 10.091 13.672 12.696 21.875a82.787 82.787 0 013.906 25.195 82.787 82.787 0 01-3.906 25.196c-2.474 8.203-6.706 15.559-12.696 22.07-5.859 6.38-13.346 9.831-22.46 10.351H13.194c-3.515-.13-6.51-1.367-8.984-3.711-2.343-2.474-3.58-5.468-3.71-8.984V59.477c.13-3.646 1.497-6.641 4.102-8.985 2.604-2.474 5.729-3.71 9.375-3.71 3.515.13 6.51 1.432 8.984 3.906 2.474 2.343 3.776 5.273 3.906 8.789v29.687c0 3.516 1.823 5.273 5.469 5.273H78.43c4.948-.26 9.05-2.148 12.304-5.664 3.256-3.515 5.6-7.486 7.032-11.914 1.562-4.557 2.343-9.18 2.343-13.867 0-4.687-.78-9.245-2.343-13.672a31.525 31.525 0 00-7.032-12.11c-3.255-3.515-7.356-5.403-12.304-5.663H13.195C5.383 30.896 1.151 26.664.5 18.852c0-3.646 1.172-6.771 3.516-9.375 2.474-2.605 5.533-3.972 9.18-4.102H85.07zm86.719 105.273c-.781 7.813-5.078 12.045-12.891 12.696-3.645 0-6.836-1.172-9.57-3.516-2.604-2.474-3.906-5.534-3.906-9.18V18.07c.13-3.646 1.497-6.64 4.101-8.984 2.605-2.474 5.73-3.711 9.375-3.711h81.836c.782 0 1.563.065 2.344.195h1.172c9.115.26 16.602 2.344 22.461 6.25 5.859 3.907 10.091 8.399 12.695 13.477 2.604 4.948 3.906 9.96 3.906 15.039 0 5.208-1.302 10.352-3.906 15.43-2.474 4.948-6.705 9.375-12.695 13.28-5.859 3.907-13.346 5.99-22.461 6.25h-34.375c1.042 6.511 3.19 11.329 6.445 14.454 3.125 3.125 7.097 4.688 11.914 4.688h42.188c3.646.13 6.64 1.497 8.984 4.101 2.474 2.604 3.711 5.729 3.711 9.375-.13 3.516-1.432 6.51-3.906 8.984-2.344 2.344-5.273 3.581-8.789 3.711h-45.703c-9.636.131-18.36-3.645-26.172-11.328-7.813-7.682-12.565-16.797-14.258-27.344-2.344-11.718-3.516-18.294-3.516-19.726 0-3.646 1.237-6.706 3.711-9.18 2.605-2.604 5.73-3.906 9.375-3.906h51.563c2.474-.13 4.492-.651 6.055-1.563 1.692-1.041 2.929-2.148 3.711-3.32.781-1.302 1.171-2.604 1.171-3.906s-.39-2.54-1.171-3.711c-.782-1.302-2.019-2.409-3.711-3.32-1.563-1.042-3.581-1.628-6.055-1.758h-68.555c-3.385.13-5.078 1.823-5.078 5.078v74.023zm176.563-20.312c0-3.646 1.237-6.706 3.71-9.18 2.605-2.604 5.73-3.906 9.376-3.906h29.882l-5.078-14.453a352.31 352.31 0 00-6.25-15.04c-1.953-4.817-4.232-9.179-6.836-13.085-2.344-3.906-5.013-5.99-8.008-6.25-3.125.26-5.924 2.344-8.398 6.25-2.474 3.906-4.753 8.268-6.836 13.086a719.543 719.543 0 00-6.055 15.039l-18.554 50.781c-1.302 2.734-2.995 5.013-5.078 6.836-1.954 1.693-4.948 2.539-8.985 2.539-3.776 0-6.901-1.302-9.375-3.906-2.344-2.604-3.385-5.729-3.125-9.375.13-1.693.521-3.255 1.172-4.688l21.484-55.468c5.99-14.584 11.98-26.368 17.969-35.352C345.227 5.31 353.82.818 365.148.688c11.198.13 19.727 4.622 25.586 13.476 5.99 8.724 11.98 20.508 17.969 35.352l21.485 55.468c.651 1.433 1.041 2.995 1.171 4.688.261 3.646-.846 6.771-3.32 9.375-2.344 2.604-5.404 3.906-9.18 3.906-4.297 0-7.487-.846-9.57-2.539-1.953-1.823-3.581-4.102-4.883-6.836l-3.711-10.156h-39.257c-3.646 0-6.706-1.302-9.18-3.906-2.604-2.474-3.906-5.534-3.906-9.18zM488 5.375h82.422c3.646.13 6.64 1.497 8.984 4.102 2.474 2.604 3.711 5.729 3.711 9.375-.651 7.812-4.883 12.044-12.695 12.695h-75.781c-4.948.26-9.05 2.148-12.305 5.664a33.739 33.739 0 00-7.227 12.11 44.15 44.15 0 00-2.148 13.671c0 4.688.716 9.31 2.148 13.867 1.563 4.428 3.972 8.399 7.227 11.914 3.255 3.516 7.357 5.404 12.305 5.665h59.375c2.343-.13 3.58-1.433 3.711-3.907V79.203c-.131-2.604-1.368-3.906-3.711-3.906h-50c-3.646 0-6.771-1.237-9.375-3.711-2.474-2.604-3.711-5.73-3.711-9.375 0-3.646 1.237-6.77 3.711-9.375 2.604-2.474 5.729-3.711 9.375-3.711h66.796c3.646 0 6.771 1.237 9.376 3.71 2.343 2.475 3.58 5.47 3.71 8.985v46.094c-.13 3.516-1.367 6.445-3.71 8.789-2.474 2.474-5.469 3.776-8.985 3.906H488c-9.115-.52-16.667-3.971-22.656-10.351-5.86-6.511-10.091-13.867-12.696-22.07a86.79 86.79 0 01-3.71-25.196 82.787 82.787 0 013.906-25.195c2.604-8.203 6.836-15.495 12.695-21.875C471.398 9.412 478.885 5.896 488 5.375zm304.883 0c9.114.52 16.601 4.036 22.461 10.547 5.859 6.38 10.091 13.672 12.695 21.875a82.787 82.787 0 013.906 25.195 82.787 82.787 0 01-3.906 25.196c-2.474 8.203-6.706 15.559-12.695 22.07-5.86 6.38-13.347 9.831-22.461 10.351h-71.875c-3.516-.13-6.511-1.367-8.985-3.711-2.343-2.474-3.58-5.468-3.711-8.984V59.477c.131-3.646 1.498-6.641 4.102-8.985 2.604-2.474 5.729-3.71 9.375-3.71 3.516.13 6.51 1.432 8.984 3.906 2.474 2.343 3.776 5.273 3.907 8.789v29.687c0 3.516 1.823 5.273 5.468 5.273h46.094c4.948-.26 9.05-2.148 12.305-5.664 3.255-3.515 5.599-7.486 7.031-11.914 1.563-4.557 2.344-9.18 2.344-13.867 0-4.687-.781-9.245-2.344-13.672a31.523 31.523 0 00-7.031-12.11c-3.255-3.515-7.357-5.403-12.305-5.663h-65.234c-7.813-.651-12.044-4.883-12.696-12.695 0-3.646 1.172-6.771 3.516-9.375 2.474-2.605 5.534-3.972 9.18-4.102h71.875zm165.234 0c6.641.13 12.565 2.214 17.774 6.25 5.208 4.037 9.375 8.854 12.5 14.453a68 68 0 017.226 17.774 78.595 78.595 0 012.344 19.14c0 8.594-1.367 17.057-4.102 25.39-2.604 8.204-6.966 15.496-13.086 21.876-5.989 6.38-13.541 9.831-22.656 10.351h-68.164c-9.114-.39-16.732-3.776-22.851-10.156-6.12-6.38-10.482-13.737-13.086-22.07-2.474-8.334-3.711-16.797-3.711-25.39a82.787 82.787 0 013.906-25.196c2.604-8.333 6.901-15.69 12.891-22.07 6.119-6.51 13.737-9.961 22.851-10.352h68.164zm-6.64 89.063c4.947-.26 9.049-2.084 12.304-5.47 3.386-3.515 5.795-7.551 7.227-12.109 1.432-4.557 2.148-9.18 2.148-13.867 0-4.687-.781-9.245-2.344-13.672a31.523 31.523 0 00-7.031-12.11c-3.255-3.515-7.357-5.403-12.304-5.663h-55.469c-4.948.26-9.05 2.148-12.305 5.664a33.722 33.722 0 00-7.226 12.11 44.122 44.122 0 00-2.149 13.671c0 4.688.716 9.31 2.149 13.867a31.523 31.523 0 007.031 12.11c3.385 3.385 7.552 5.208 12.5 5.469h55.469zm64.063-75.978c0-3.645 1.24-6.705 3.71-9.179 2.6-2.604 5.73-3.906 9.37-3.906h113.68c3.64 0 6.77 1.237 9.37 3.71 2.48 2.605 3.71 5.73 3.71 9.376 0 3.646-1.3 6.77-3.9 9.375-2.48 2.474-5.54 3.71-9.18 3.71h-43.56v79.102c-.78 7.813-5.08 12.045-12.89 12.696-3.64 0-6.83-1.172-9.57-3.516-2.6-2.474-3.9-5.534-3.9-9.18V31.547h-43.76c-3.64 0-6.7-1.302-9.17-3.906-2.61-2.474-3.91-5.534-3.91-9.18zm286.72 0c0 3.647-1.3 6.707-3.91 9.18-2.47 2.605-5.53 3.907-9.18 3.907h-78.12c-2.48.13-4.56.716-6.25 1.758-1.57.911-2.74 2.018-3.52 3.32-.78 1.172-1.17 2.409-1.17 3.71 0 1.303.39 2.605 1.17 3.907.78 1.172 1.95 2.279 3.52 3.32 1.69.912 3.77 1.433 6.25 1.563h55.47c9.11.26 16.6 2.409 22.46 6.445 5.99 3.907 10.22 8.464 12.69 13.672 2.61 5.078 3.91 10.287 3.91 15.625 0 5.209-1.3 10.417-3.91 15.625-2.6 5.078-6.83 9.636-12.69 13.672-5.86 3.906-13.35 5.859-22.46 5.859h-1.18c-.78.131-1.56.196-2.34.196h-73.83c-3.64 0-6.77-1.237-9.37-3.711-2.48-2.604-3.71-5.729-3.71-9.375s1.3-6.706 3.9-9.18c2.48-2.604 5.54-3.906 9.18-3.906h78.52c2.47.13 4.49-.326 6.05-1.367 1.69-1.042 2.93-2.214 3.71-3.516.78-1.432 1.17-2.865 1.17-4.297 0-.911-.39-2.148-1.17-3.71-.78-1.694-2.02-3.06-3.71-4.102-1.56-1.042-3.58-1.628-6.05-1.758h-55.47c-9.12-.26-16.67-2.344-22.66-6.25-5.86-3.906-10.09-8.333-12.69-13.281-2.48-5.078-3.71-10.222-3.71-15.43 0-5.078 1.3-10.091 3.9-15.04 2.61-5.077 6.84-9.57 12.7-13.476 5.86-3.906 13.34-5.99 22.46-6.25h1.17c.78-.13 1.56-.195 2.34-.195h73.44c3.65 0 6.71 1.302 9.18 3.906 2.61 2.474 3.91 5.534 3.91 9.18z" fill="currentColor"/></svg><svg fill="none" viewBox="0 0 1280 124" id="logo-drag-dots2" xmlns="http://www.w3.org/2000/svg"><path d="M85.07 5.375c9.115.52 16.602 4.036 22.461 10.547 5.86 6.38 10.091 13.672 12.696 21.875a82.787 82.787 0 013.906 25.195 82.787 82.787 0 01-3.906 25.196c-2.474 8.203-6.706 15.559-12.696 22.07-5.859 6.38-13.346 9.831-22.46 10.351H13.194c-3.515-.13-6.51-1.367-8.984-3.711-2.343-2.474-3.58-5.468-3.71-8.984V59.477c.13-3.646 1.497-6.641 4.102-8.985 2.604-2.474 5.729-3.71 9.375-3.71 3.515.13 6.51 1.432 8.984 3.906 2.474 2.343 3.776 5.273 3.906 8.789v29.687c0 3.516 1.823 5.273 5.469 5.273H78.43c4.948-.26 9.05-2.148 12.304-5.664 3.256-3.515 5.6-7.486 7.032-11.914 1.562-4.557 2.343-9.18 2.343-13.867 0-4.687-.78-9.245-2.343-13.672a31.525 31.525 0 00-7.032-12.11c-3.255-3.515-7.356-5.403-12.304-5.663H13.195C5.383 30.896 1.151 26.664.5 18.852c0-3.646 1.172-6.771 3.516-9.375 2.474-2.605 5.533-3.972 9.18-4.102H85.07zm86.719 105.273c-.781 7.813-5.078 12.045-12.891 12.696-3.645 0-6.836-1.172-9.57-3.516-2.604-2.474-3.906-5.534-3.906-9.18V18.07c.13-3.646 1.497-6.64 4.101-8.984 2.605-2.474 5.73-3.711 9.375-3.711h81.836c.782 0 1.563.065 2.344.195h1.172c9.115.26 16.602 2.344 22.461 6.25 5.859 3.907 10.091 8.399 12.695 13.477 2.604 4.948 3.906 9.96 3.906 15.039 0 5.208-1.302 10.352-3.906 15.43-2.474 4.948-6.705 9.375-12.695 13.28-5.859 3.907-13.346 5.99-22.461 6.25h-34.375c1.042 6.511 3.19 11.329 6.445 14.454 3.125 3.125 7.097 4.688 11.914 4.688h42.188c3.646.13 6.64 1.497 8.984 4.101 2.474 2.604 3.711 5.729 3.711 9.375-.13 3.516-1.432 6.51-3.906 8.984-2.344 2.344-5.273 3.581-8.789 3.711h-45.703c-9.636.131-18.36-3.645-26.172-11.328-7.813-7.682-12.565-16.797-14.258-27.344-2.344-11.718-3.516-18.294-3.516-19.726 0-3.646 1.237-6.706 3.711-9.18 2.605-2.604 5.73-3.906 9.375-3.906h51.563c2.474-.13 4.492-.651 6.055-1.563 1.692-1.041 2.929-2.148 3.711-3.32.781-1.302 1.171-2.604 1.171-3.906s-.39-2.54-1.171-3.711c-.782-1.302-2.019-2.409-3.711-3.32-1.563-1.042-3.581-1.628-6.055-1.758h-68.555c-3.385.13-5.078 1.823-5.078 5.078v74.023zm176.563-20.312c0-3.646 1.237-6.706 3.71-9.18 2.605-2.604 5.73-3.906 9.376-3.906h29.882l-5.078-14.453a352.31 352.31 0 00-6.25-15.04c-1.953-4.817-4.232-9.179-6.836-13.085-2.344-3.906-5.013-5.99-8.008-6.25-3.125.26-5.924 2.344-8.398 6.25-2.474 3.906-4.753 8.268-6.836 13.086a719.543 719.543 0 00-6.055 15.039l-18.554 50.781c-1.302 2.734-2.995 5.013-5.078 6.836-1.954 1.693-4.948 2.539-8.985 2.539-3.776 0-6.901-1.302-9.375-3.906-2.344-2.604-3.385-5.729-3.125-9.375.13-1.693.521-3.255 1.172-4.688l21.484-55.468c5.99-14.584 11.98-26.368 17.969-35.352C345.227 5.31 353.82.818 365.148.688c11.198.13 19.727 4.622 25.586 13.476 5.99 8.724 11.98 20.508 17.969 35.352l21.485 55.468c.651 1.433 1.041 2.995 1.171 4.688.261 3.646-.846 6.771-3.32 9.375-2.344 2.604-5.404 3.906-9.18 3.906-4.297 0-7.487-.846-9.57-2.539-1.953-1.823-3.581-4.102-4.883-6.836l-3.711-10.156h-39.257c-3.646 0-6.706-1.302-9.18-3.906-2.604-2.474-3.906-5.534-3.906-9.18zM488 5.375h82.422c3.646.13 6.64 1.497 8.984 4.102 2.474 2.604 3.711 5.729 3.711 9.375-.651 7.812-4.883 12.044-12.695 12.695h-75.781c-4.948.26-9.05 2.148-12.305 5.664a33.739 33.739 0 00-7.227 12.11 44.15 44.15 0 00-2.148 13.671c0 4.688.716 9.31 2.148 13.867 1.563 4.428 3.972 8.399 7.227 11.914 3.255 3.516 7.357 5.404 12.305 5.665h59.375c2.343-.13 3.58-1.433 3.711-3.907V79.203c-.131-2.604-1.368-3.906-3.711-3.906h-50c-3.646 0-6.771-1.237-9.375-3.711-2.474-2.604-3.711-5.73-3.711-9.375 0-3.646 1.237-6.77 3.711-9.375 2.604-2.474 5.729-3.711 9.375-3.711h66.796c3.646 0 6.771 1.237 9.376 3.71 2.343 2.475 3.58 5.47 3.71 8.985v46.094c-.13 3.516-1.367 6.445-3.71 8.789-2.474 2.474-5.469 3.776-8.985 3.906H488c-9.115-.52-16.667-3.971-22.656-10.351-5.86-6.511-10.091-13.867-12.696-22.07a86.79 86.79 0 01-3.71-25.196 82.787 82.787 0 013.906-25.195c2.604-8.203 6.836-15.495 12.695-21.875C471.398 9.412 478.885 5.896 488 5.375zm128.125 68.75c-2.865 0-5.339-.977-7.422-2.93-2.083-2.083-3.125-4.557-3.125-7.422 0-2.994 1.042-5.468 3.125-7.421 2.083-2.084 4.557-3.125 7.422-3.125h33.594c2.864 0 5.338 1.041 7.422 3.125 2.083 1.953 3.125 4.427 3.125 7.421 0 2.865-1.042 5.339-3.125 7.422-2.084 1.953-4.558 2.93-7.422 2.93h-33.594zm150.586-68.75c9.115.52 16.601 4.036 22.461 10.547 5.859 6.38 10.091 13.672 12.695 21.875a82.787 82.787 0 013.906 25.195 82.787 82.787 0 01-3.906 25.196c-2.474 8.203-6.706 15.559-12.695 22.07-5.86 6.38-13.346 9.831-22.461 10.351h-71.875c-3.516-.13-6.51-1.367-8.984-3.711-2.344-2.474-3.581-5.468-3.711-8.984V59.477c.13-3.646 1.497-6.641 4.101-8.985 2.604-2.474 5.729-3.71 9.375-3.71 3.516.13 6.511 1.432 8.985 3.906 2.474 2.343 3.776 5.273 3.906 8.789v29.687c0 3.516 1.823 5.273 5.469 5.273h46.093c4.948-.26 9.05-2.148 12.305-5.664 3.255-3.515 5.599-7.486 7.031-11.914 1.563-4.557 2.344-9.18 2.344-13.867 0-4.687-.781-9.245-2.344-13.672a31.523 31.523 0 00-7.031-12.11c-3.255-3.515-7.357-5.403-12.305-5.663h-65.234c-7.813-.651-12.044-4.883-12.695-12.695 0-3.646 1.171-6.771 3.515-9.375 2.474-2.605 5.534-3.972 9.18-4.102h71.875zm165.234 0c6.641.13 12.565 2.214 17.774 6.25 5.208 4.037 9.375 8.854 12.5 14.453a68 68 0 017.226 17.774 78.595 78.595 0 012.344 19.14c0 8.594-1.367 17.057-4.101 25.39-2.605 8.204-6.967 15.496-13.086 21.876-5.99 6.38-13.542 9.831-22.657 10.351h-68.164c-9.114-.39-16.732-3.776-22.851-10.156-6.12-6.38-10.482-13.737-13.086-22.07-2.474-8.334-3.711-16.797-3.711-25.39a82.787 82.787 0 013.906-25.196c2.604-8.333 6.901-15.69 12.891-22.07 6.119-6.51 13.737-9.961 22.851-10.352h68.164zm-6.64 89.063c4.948-.26 9.049-2.084 12.304-5.47 3.386-3.515 5.795-7.551 7.227-12.109 1.432-4.557 2.148-9.18 2.148-13.867a40.8 40.8 0 00-2.343-13.672 31.525 31.525 0 00-7.032-12.11c-3.255-3.515-7.356-5.403-12.304-5.663h-55.469c-4.948.26-9.05 2.148-12.305 5.664a33.722 33.722 0 00-7.226 12.11 44.122 44.122 0 00-2.149 13.671c0 4.688.716 9.31 2.149 13.867a31.523 31.523 0 007.031 12.11c3.385 3.385 7.552 5.208 12.5 5.469h55.469zm64.062-75.978c0-3.645 1.237-6.705 3.711-9.179 2.604-2.604 5.729-3.906 9.372-3.906h113.67c3.65 0 6.78 1.237 9.38 3.71 2.47 2.605 3.71 5.73 3.71 9.376 0 3.646-1.3 6.77-3.91 9.375-2.47 2.474-5.53 3.71-9.18 3.71h-43.55v79.102c-.78 7.813-5.08 12.045-12.89 12.696-3.65 0-6.84-1.172-9.57-3.516-2.6-2.474-3.91-5.534-3.91-9.18V31.547h-43.75c-3.643 0-6.703-1.302-9.177-3.906-2.604-2.474-3.906-5.534-3.906-9.18zm286.723 0c0 3.647-1.31 6.707-3.91 9.18-2.47 2.605-5.53 3.907-9.18 3.907h-78.12c-2.48.13-4.56.716-6.26 1.758-1.56.911-2.73 2.018-3.51 3.32-.78 1.172-1.17 2.409-1.17 3.71 0 1.303.39 2.605 1.17 3.907.78 1.172 1.95 2.279 3.51 3.32 1.7.912 3.78 1.433 6.26 1.563h55.46c9.12.26 16.61 2.409 22.46 6.445 5.99 3.907 10.23 8.464 12.7 13.672 2.6 5.078 3.91 10.287 3.91 15.625 0 5.209-1.31 10.417-3.91 15.625-2.6 5.078-6.84 9.636-12.7 13.672-5.85 3.906-13.34 5.859-22.46 5.859h-1.17c-.78.131-1.56.196-2.34.196H1163c-3.65 0-6.77-1.237-9.38-3.711-2.47-2.604-3.71-5.729-3.71-9.375s1.31-6.706 3.91-9.18c2.47-2.604 5.53-3.906 9.18-3.906h78.52c2.47.13 4.49-.326 6.05-1.367 1.69-1.042 2.93-2.214 3.71-3.516.78-1.432 1.17-2.865 1.17-4.297 0-.911-.39-2.148-1.17-3.71-.78-1.694-2.02-3.06-3.71-4.102-1.56-1.042-3.58-1.628-6.05-1.758h-55.47c-9.12-.26-16.67-2.344-22.66-6.25-5.86-3.906-10.09-8.333-12.69-13.281-2.48-5.078-3.72-10.222-3.72-15.43 0-5.078 1.31-10.091 3.91-15.04 2.6-5.077 6.84-9.57 12.7-13.476 5.86-3.906 13.34-5.99 22.46-6.25h1.17c.78-.13 1.56-.195 2.34-.195H1263c3.65 0 6.71 1.302 9.18 3.906 2.6 2.474 3.91 5.534 3.91 9.18z" fill="currentColor"/></svg></svg>