<svg width="504" height="504" viewBox="0 0 504 504" fill="none" xmlns="http://www.w3.org/2000/svg">
<path d="M504 252C504 391.176 391.176 504 252 504C112.824 504 0 391.176 0 252C0 112.824 112.824 0 252 0C391.176 0 504 112.824 504 252Z" fill="white"/>
<path d="M376.91 135.085C362.408 118.983 343.877 110.288 321.318 109H143.422C134.398 109.322 126.825 112.703 120.701 119.144C114.9 125.585 112 133.314 112 142.331C113.611 161.653 124.085 172.119 143.422 173.729H304.882C317.128 174.373 327.28 179.042 335.336 187.737C343.393 196.432 349.194 206.415 352.739 217.686C356.607 228.636 358.54 239.907 358.54 251.5C358.54 263.093 356.607 274.525 352.739 285.797C349.194 296.746 343.393 306.568 335.336 315.263C327.28 323.958 317.128 328.627 304.882 329.271H190.796C181.773 329.271 177.261 324.924 177.261 316.229V242.805C176.938 234.11 173.716 226.864 167.592 221.068C161.469 214.949 154.057 211.729 145.355 211.407C136.332 211.407 128.597 214.466 122.152 220.585C115.706 226.381 112.322 233.788 112 242.805V362.602C112.322 371.297 115.384 378.703 121.185 384.822C127.308 390.619 134.72 393.678 143.422 394H321.318C343.877 392.712 362.408 384.178 376.91 368.398C391.735 352.297 402.209 334.102 408.332 313.814C414.777 293.525 418 272.754 418 251.5C418 230.246 414.777 209.475 408.332 189.186C401.886 168.898 391.412 150.864 376.91 135.085Z" fill="#28C065"/>
</svg>
